<?xml version="1.0" encoding="utf-8"?>
<!-- Generator: Adobe Illustrator 23.0.1, SVG Export Plug-In . SVG Version: 6.00 Build 0)  -->
<svg version="1.1" id="Layer_1" xmlns="http://www.w3.org/2000/svg" xmlns:xlink="http://www.w3.org/1999/xlink" x="0px" y="0px"
	 viewBox="0 0 70 70" style="enable-background:new 0 0 70 70;" xml:space="preserve">
<style type="text/css">
	.st0{fill:#333333;}
	.st1{fill:#FFFFFF;}
</style>
<rect x="0.1" y="0" class="st0" width="70" height="70"/>
<path class="st1" d="M27.8,23c2.5-1.4,5.4-2.2,8.6-2.2c3.5,0,6.6,0.8,9.3,2.5c2.8,1.6,4.9,3.9,6.5,6.9c1.6,3,2.4,6.4,2.4,10.3
	c0,3.9-0.8,7.3-2.4,10.4c-1.6,3-3.8,5.4-6.5,7.1c-2.8,1.7-5.9,2.5-9.3,2.5c-3.3,0-6.2-0.7-8.7-2.2c-2.5-1.4-4.4-3.3-5.6-5.5v7.1
	h-6.4V8H22v20.6C23.3,26.3,25.3,24.4,27.8,23z M46.3,32.9c-1.2-2.1-2.7-3.8-4.7-4.9c-2-1.1-4.2-1.7-6.5-1.7c-2.3,0-4.5,0.6-6.5,1.7
	c-2,1.1-3.6,2.8-4.8,5S22,37.7,22,40.5c0,2.9,0.6,5.4,1.8,7.6s2.8,3.8,4.8,5c2,1.1,4.1,1.7,6.5,1.7c2.4,0,4.6-0.6,6.5-1.7
	c2-1.1,3.6-2.8,4.7-5c1.2-2.2,1.8-4.7,1.8-7.7C48.1,37.6,47.5,35.1,46.3,32.9z"/>
</svg>
